<svg width="149" height="28" viewBox="0 0 149 28" fill="none" xmlns="http://www.w3.org/2000/svg">
<path d="M9.016 22.12C7.752 22.12 6.624 21.832 5.632 21.256C4.656 20.664 3.88 19.864 3.304 18.856C2.744 17.848 2.464 16.712 2.464 15.448C2.464 14.168 2.736 13.024 3.28 12.016C3.824 11.008 4.568 10.216 5.512 9.64C6.456 9.048 7.544 8.752 8.776 8.752C9.752 8.752 10.648 8.944 11.464 9.328C12.296 9.712 13.024 10.288 13.648 11.056C13.824 11.248 13.888 11.456 13.84 11.68C13.792 11.888 13.656 12.072 13.432 12.232C13.256 12.36 13.056 12.408 12.832 12.376C12.624 12.328 12.44 12.208 12.28 12.016C11.352 10.96 10.184 10.432 8.776 10.432C7.88 10.432 7.088 10.648 6.4 11.08C5.728 11.512 5.2 12.104 4.816 12.856C4.448 13.608 4.264 14.472 4.264 15.448C4.264 16.408 4.464 17.264 4.864 18.016C5.264 18.768 5.824 19.36 6.544 19.792C7.264 20.224 8.088 20.44 9.016 20.44C9.64 20.44 10.208 20.36 10.72 20.2C11.248 20.024 11.712 19.76 12.112 19.408C12.304 19.248 12.504 19.16 12.712 19.144C12.92 19.128 13.112 19.192 13.288 19.336C13.48 19.512 13.584 19.712 13.6 19.936C13.632 20.16 13.56 20.352 13.384 20.512C12.216 21.584 10.76 22.12 9.016 22.12ZM23.4329 22.12C22.1529 22.12 21.0089 21.832 20.0009 21.256C18.9929 20.68 18.2009 19.888 17.6249 18.88C17.0489 17.872 16.7609 16.728 16.7609 15.448C16.7609 14.152 17.0489 13 17.6249 11.992C18.2009 10.984 18.9929 10.192 20.0009 9.616C21.0089 9.04 22.1529 8.752 23.4329 8.752C24.7129 8.752 25.8489 9.04 26.8409 9.616C27.8489 10.192 28.6409 10.984 29.2169 11.992C29.7929 13 30.0889 14.152 30.1049 15.448C30.1049 16.728 29.8089 17.872 29.2169 18.88C28.6409 19.888 27.8489 20.68 26.8409 21.256C25.8489 21.832 24.7129 22.12 23.4329 22.12ZM23.4329 20.44C24.3609 20.44 25.1929 20.224 25.9289 19.792C26.6649 19.36 27.2409 18.768 27.6569 18.016C28.0729 17.264 28.2809 16.408 28.2809 15.448C28.2809 14.488 28.0729 13.632 27.6569 12.88C27.2409 12.112 26.6649 11.512 25.9289 11.08C25.1929 10.648 24.3609 10.432 23.4329 10.432C22.5049 10.432 21.6729 10.648 20.9369 11.08C20.2009 11.512 19.6169 12.112 19.1849 12.88C18.7689 13.632 18.5609 14.488 18.5609 15.448C18.5609 16.408 18.7689 17.264 19.1849 18.016C19.6169 18.768 20.2009 19.36 20.9369 19.792C21.6729 20.224 22.5049 20.44 23.4329 20.44ZM39.6751 22.12C38.3951 22.12 37.2511 21.832 36.2431 21.256C35.2351 20.68 34.4431 19.888 33.8671 18.88C33.2911 17.872 33.0031 16.728 33.0031 15.448C33.0031 14.152 33.2911 13 33.8671 11.992C34.4431 10.984 35.2351 10.192 36.2431 9.616C37.2511 9.04 38.3951 8.752 39.6751 8.752C40.9551 8.752 42.0911 9.04 43.0831 9.616C44.0911 10.192 44.8831 10.984 45.4591 11.992C46.0351 13 46.3311 14.152 46.3471 15.448C46.3471 16.728 46.0511 17.872 45.4591 18.88C44.8831 19.888 44.0911 20.68 43.0831 21.256C42.0911 21.832 40.9551 22.12 39.6751 22.12ZM39.6751 20.44C40.6031 20.44 41.4351 20.224 42.1711 19.792C42.9071 19.36 43.4831 18.768 43.8991 18.016C44.3151 17.264 44.5231 16.408 44.5231 15.448C44.5231 14.488 44.3151 13.632 43.8991 12.88C43.4831 12.112 42.9071 11.512 42.1711 11.08C41.4351 10.648 40.6031 10.432 39.6751 10.432C38.7471 10.432 37.9151 10.648 37.1791 11.08C36.4431 11.512 35.8591 12.112 35.4271 12.88C35.0111 13.632 34.8031 14.488 34.8031 15.448C34.8031 16.408 35.0111 17.264 35.4271 18.016C35.8591 18.768 36.4431 19.36 37.1791 19.792C37.9151 20.224 38.7471 20.44 39.6751 20.44ZM51.4533 17.608L50.3253 16.384L58.5333 8.968C58.7253 8.792 58.9253 8.712 59.1333 8.728C59.3413 8.728 59.5333 8.824 59.7093 9.016C59.8853 9.208 59.9653 9.416 59.9493 9.64C59.9493 9.848 59.8533 10.032 59.6613 10.192L51.4533 17.608ZM50.8533 22C50.5813 22 50.3573 21.92 50.1813 21.76C50.0213 21.584 49.9413 21.36 49.9413 21.088V4.168C49.9413 3.896 50.0213 3.68 50.1813 3.52C50.3573 3.344 50.5813 3.256 50.8533 3.256C51.1253 3.256 51.3413 3.344 51.5013 3.52C51.6773 3.68 51.7653 3.896 51.7653 4.168V21.088C51.7653 21.36 51.6773 21.584 51.5013 21.76C51.3413 21.92 51.1253 22 50.8533 22ZM59.7333 21.88C59.5253 22.056 59.3093 22.128 59.0853 22.096C58.8613 22.08 58.6693 21.968 58.5093 21.76L53.1573 15.184L54.4533 14.032L59.8533 20.68C60.0133 20.872 60.0853 21.08 60.0693 21.304C60.0533 21.512 59.9413 21.704 59.7333 21.88ZM67.6596 22.168C66.6196 22.168 65.7236 21.984 64.9716 21.616C64.2196 21.232 63.6356 20.704 63.2196 20.032C62.8036 19.36 62.5956 18.584 62.5956 17.704C62.5956 16.68 62.9156 15.736 63.5556 14.872C64.1956 13.992 65.1636 13.048 66.4596 12.04L68.4756 10.456C69.1636 9.912 69.6756 9.36 70.0116 8.8C70.3636 8.224 70.5396 7.632 70.5396 7.024C70.5396 6.368 70.3156 5.8 69.8676 5.32C69.4196 4.824 68.7876 4.576 67.9716 4.576C67.2516 4.576 66.6516 4.808 66.1716 5.272C65.7076 5.72 65.4756 6.248 65.4756 6.856C65.4756 7.352 65.5716 7.816 65.7636 8.248C65.9716 8.664 66.2836 9.08 66.6996 9.496L77.4756 20.248C77.6676 20.456 77.7796 20.648 77.8116 20.824C77.8436 21 77.7636 21.192 77.5716 21.4C77.1556 21.816 76.7476 21.816 76.3476 21.4L65.4516 10.504C64.9396 9.992 64.5316 9.432 64.2276 8.824C63.9396 8.2 63.7956 7.552 63.7956 6.88C63.7956 6.144 63.9796 5.488 64.3476 4.912C64.7156 4.336 65.2116 3.88 65.8356 3.544C66.4596 3.208 67.1716 3.04 67.9716 3.04C68.7876 3.04 69.5156 3.216 70.1556 3.568C70.7956 3.92 71.2996 4.4 71.6676 5.008C72.0356 5.6 72.2196 6.28 72.2196 7.048C72.2036 7.656 72.0756 8.224 71.8356 8.752C71.6116 9.264 71.2836 9.76 70.8516 10.24C70.4196 10.704 69.8996 11.176 69.2916 11.656L67.2996 13.192C66.6116 13.736 66.0516 14.264 65.6196 14.776C65.1876 15.272 64.8676 15.76 64.6596 16.24C64.4676 16.72 64.3716 17.208 64.3716 17.704C64.3716 18.568 64.6596 19.264 65.2356 19.792C65.8116 20.304 66.6356 20.56 67.7076 20.56C68.5236 20.56 69.2676 20.352 69.9396 19.936C70.6276 19.52 71.3316 18.928 72.0516 18.16L75.6996 14.296C75.8916 14.104 76.0756 13.992 76.2516 13.96C76.4276 13.912 76.6196 13.984 76.8276 14.176C77.0196 14.352 77.1236 14.544 77.1396 14.752C77.1556 14.96 77.0596 15.168 76.8516 15.376L73.2036 19.24C72.3716 20.152 71.5076 20.872 70.6116 21.4C69.7316 21.912 68.7476 22.168 67.6596 22.168ZM86.0851 22C85.2371 22 84.4771 21.8 83.8051 21.4C83.1491 21 82.6291 20.456 82.2451 19.768C81.8611 19.064 81.6691 18.264 81.6691 17.368V5.632C81.6691 5.36 81.7491 5.136 81.9091 4.96C82.0851 4.784 82.3091 4.696 82.5811 4.696C82.8531 4.696 83.0771 4.784 83.2531 4.96C83.4291 5.136 83.5171 5.36 83.5171 5.632V17.368C83.5171 18.184 83.7571 18.856 84.2371 19.384C84.7171 19.896 85.3331 20.152 86.0851 20.152H86.7331C86.9891 20.152 87.1971 20.24 87.3571 20.416C87.5171 20.592 87.5971 20.816 87.5971 21.088C87.5971 21.36 87.5011 21.584 87.3091 21.76C87.1171 21.92 86.8771 22 86.5891 22H86.0851ZM80.1091 10.96C79.8691 10.96 79.6691 10.888 79.5091 10.744C79.3491 10.584 79.2691 10.392 79.2691 10.168C79.2691 9.928 79.3491 9.736 79.5091 9.592C79.6691 9.432 79.8691 9.352 80.1091 9.352H86.2291C86.4691 9.352 86.6691 9.432 86.8291 9.592C86.9891 9.736 87.0691 9.928 87.0691 10.168C87.0691 10.392 86.9891 10.584 86.8291 10.744C86.6691 10.888 86.4691 10.96 86.2291 10.96H80.1091ZM91.3733 13.912C91.4213 12.92 91.6773 12.032 92.1413 11.248C92.6213 10.464 93.2373 9.848 93.9893 9.4C94.7573 8.952 95.6053 8.728 96.5333 8.728C97.2693 8.728 97.8373 8.832 98.2373 9.04C98.6373 9.248 98.7893 9.552 98.6933 9.952C98.6293 10.192 98.5173 10.352 98.3573 10.432C98.2133 10.512 98.0293 10.544 97.8053 10.528C97.5973 10.512 97.3573 10.496 97.0853 10.48C96.1893 10.4 95.3893 10.496 94.6853 10.768C93.9973 11.024 93.4453 11.424 93.0293 11.968C92.6293 12.512 92.4293 13.16 92.4293 13.912H91.3733ZM91.5173 22C91.2293 22 91.0053 21.92 90.8453 21.76C90.6853 21.6 90.6053 21.376 90.6053 21.088V9.784C90.6053 9.496 90.6853 9.272 90.8453 9.112C91.0053 8.952 91.2293 8.872 91.5173 8.872C91.8053 8.872 92.0293 8.952 92.1893 9.112C92.3493 9.272 92.4293 9.496 92.4293 9.784V21.088C92.4293 21.376 92.3493 21.6 92.1893 21.76C92.0293 21.92 91.8053 22 91.5173 22ZM106.421 22.12C105.189 22.12 104.085 21.832 103.109 21.256C102.133 20.664 101.357 19.864 100.781 18.856C100.221 17.848 99.9406 16.712 99.9406 15.448C99.9406 14.168 100.229 13.024 100.805 12.016C101.397 11.008 102.197 10.216 103.205 9.64C104.213 9.048 105.349 8.752 106.613 8.752C107.877 8.752 109.005 9.048 109.997 9.64C111.005 10.216 111.797 11.008 112.373 12.016C112.965 13.024 113.269 14.168 113.285 15.448L112.541 16.024C112.541 17.176 112.269 18.216 111.725 19.144C111.197 20.056 110.469 20.784 109.541 21.328C108.629 21.856 107.589 22.12 106.421 22.12ZM106.613 20.44C107.541 20.44 108.365 20.224 109.085 19.792C109.821 19.36 110.397 18.768 110.813 18.016C111.245 17.248 111.461 16.392 111.461 15.448C111.461 14.488 111.245 13.632 110.813 12.88C110.397 12.128 109.821 11.536 109.085 11.104C108.365 10.656 107.541 10.432 106.613 10.432C105.701 10.432 104.877 10.656 104.141 11.104C103.405 11.536 102.821 12.128 102.389 12.88C101.957 13.632 101.741 14.488 101.741 15.448C101.741 16.392 101.957 17.248 102.389 18.016C102.821 18.768 103.405 19.36 104.141 19.792C104.877 20.224 105.701 20.44 106.613 20.44ZM112.349 22C112.077 22 111.853 21.92 111.677 21.76C111.501 21.584 111.413 21.36 111.413 21.088V16.984L111.869 15.088L113.285 15.448V21.088C113.285 21.36 113.197 21.584 113.021 21.76C112.845 21.92 112.621 22 112.349 22ZM120.64 22C120.256 22 119.968 21.792 119.776 21.376L114.448 10.072C114.352 9.864 114.344 9.656 114.424 9.448C114.504 9.24 114.664 9.08 114.904 8.968C115.128 8.856 115.344 8.84 115.552 8.92C115.76 9 115.92 9.144 116.032 9.352L121.144 20.416H120.16L125.2 9.352C125.296 9.128 125.456 8.984 125.68 8.92C125.92 8.84 126.152 8.848 126.376 8.944C126.6 9.056 126.752 9.224 126.832 9.448C126.912 9.656 126.904 9.856 126.808 10.048L121.552 21.376C121.36 21.792 121.056 22 120.64 22ZM134.901 22.12C133.605 22.12 132.453 21.84 131.445 21.28C130.453 20.704 129.669 19.912 129.093 18.904C128.533 17.896 128.253 16.744 128.253 15.448C128.253 14.136 128.517 12.984 129.045 11.992C129.589 10.984 130.333 10.192 131.277 9.616C132.221 9.04 133.309 8.752 134.541 8.752C135.757 8.752 136.813 9.032 137.709 9.592C138.621 10.136 139.325 10.896 139.821 11.872C140.317 12.848 140.565 13.96 140.565 15.208C140.565 15.464 140.485 15.672 140.325 15.832C140.165 15.976 139.957 16.048 139.701 16.048H129.501V14.512H139.893L138.861 15.256C138.877 14.328 138.709 13.496 138.357 12.76C138.005 12.024 137.501 11.448 136.845 11.032C136.205 10.616 135.437 10.408 134.541 10.408C133.629 10.408 132.829 10.624 132.141 11.056C131.453 11.488 130.917 12.088 130.533 12.856C130.165 13.608 129.981 14.472 129.981 15.448C129.981 16.424 130.189 17.288 130.605 18.04C131.037 18.792 131.621 19.384 132.357 19.816C133.093 20.248 133.941 20.464 134.901 20.464C135.477 20.464 136.053 20.368 136.629 20.176C137.221 19.968 137.693 19.712 138.045 19.408C138.221 19.264 138.421 19.192 138.645 19.192C138.869 19.176 139.061 19.232 139.221 19.36C139.429 19.552 139.533 19.76 139.533 19.984C139.549 20.208 139.461 20.4 139.269 20.56C138.741 21.008 138.069 21.384 137.253 21.688C136.437 21.976 135.653 22.12 134.901 22.12ZM146.523 22C145.883 22 145.307 21.824 144.795 21.472C144.299 21.12 143.907 20.632 143.619 20.008C143.347 19.384 143.211 18.664 143.211 17.848V4.168C143.211 3.896 143.291 3.68 143.451 3.52C143.627 3.344 143.851 3.256 144.123 3.256C144.395 3.256 144.611 3.344 144.771 3.52C144.947 3.68 145.035 3.896 145.035 4.168V17.848C145.035 18.536 145.171 19.096 145.443 19.528C145.731 19.96 146.091 20.176 146.523 20.176H147.123C147.363 20.176 147.555 20.264 147.699 20.44C147.843 20.6 147.915 20.816 147.915 21.088C147.915 21.36 147.811 21.584 147.603 21.76C147.411 21.92 147.155 22 146.835 22H146.523Z" fill="#F8D930"/>
<path d="M8.016 21.12C6.752 21.12 5.624 20.832 4.632 20.256C3.656 19.664 2.88 18.864 2.304 17.856C1.744 16.848 1.464 15.712 1.464 14.448C1.464 13.168 1.736 12.024 2.28 11.016C2.824 10.008 3.568 9.216 4.512 8.64C5.456 8.048 6.544 7.752 7.776 7.752C8.752 7.752 9.648 7.944 10.464 8.328C11.296 8.712 12.024 9.288 12.648 10.056C12.824 10.248 12.888 10.456 12.84 10.68C12.792 10.888 12.656 11.072 12.432 11.232C12.256 11.36 12.056 11.408 11.832 11.376C11.624 11.328 11.44 11.208 11.28 11.016C10.352 9.96 9.184 9.432 7.776 9.432C6.88 9.432 6.088 9.648 5.4 10.08C4.728 10.512 4.2 11.104 3.816 11.856C3.448 12.608 3.264 13.472 3.264 14.448C3.264 15.408 3.464 16.264 3.864 17.016C4.264 17.768 4.824 18.36 5.544 18.792C6.264 19.224 7.088 19.44 8.016 19.44C8.64 19.44 9.208 19.36 9.72 19.2C10.248 19.024 10.712 18.76 11.112 18.408C11.304 18.248 11.504 18.16 11.712 18.144C11.92 18.128 12.112 18.192 12.288 18.336C12.48 18.512 12.584 18.712 12.6 18.936C12.632 19.16 12.56 19.352 12.384 19.512C11.216 20.584 9.76 21.12 8.016 21.12ZM22.4329 21.12C21.1529 21.12 20.0089 20.832 19.0009 20.256C17.9929 19.68 17.2009 18.888 16.6249 17.88C16.0489 16.872 15.7609 15.728 15.7609 14.448C15.7609 13.152 16.0489 12 16.6249 10.992C17.2009 9.984 17.9929 9.192 19.0009 8.616C20.0089 8.04 21.1529 7.752 22.4329 7.752C23.7129 7.752 24.8489 8.04 25.8409 8.616C26.8489 9.192 27.6409 9.984 28.2169 10.992C28.7929 12 29.0889 13.152 29.1049 14.448C29.1049 15.728 28.8089 16.872 28.2169 17.88C27.6409 18.888 26.8489 19.68 25.8409 20.256C24.8489 20.832 23.7129 21.12 22.4329 21.12ZM22.4329 19.44C23.3609 19.44 24.1929 19.224 24.9289 18.792C25.6649 18.36 26.2409 17.768 26.6569 17.016C27.0729 16.264 27.2809 15.408 27.2809 14.448C27.2809 13.488 27.0729 12.632 26.6569 11.88C26.2409 11.112 25.6649 10.512 24.9289 10.08C24.1929 9.648 23.3609 9.432 22.4329 9.432C21.5049 9.432 20.6729 9.648 19.9369 10.08C19.2009 10.512 18.6169 11.112 18.1849 11.88C17.7689 12.632 17.5609 13.488 17.5609 14.448C17.5609 15.408 17.7689 16.264 18.1849 17.016C18.6169 17.768 19.2009 18.36 19.9369 18.792C20.6729 19.224 21.5049 19.44 22.4329 19.44ZM38.6751 21.12C37.3951 21.12 36.2511 20.832 35.2431 20.256C34.2351 19.68 33.4431 18.888 32.8671 17.88C32.2911 16.872 32.0031 15.728 32.0031 14.448C32.0031 13.152 32.2911 12 32.8671 10.992C33.4431 9.984 34.2351 9.192 35.2431 8.616C36.2511 8.04 37.3951 7.752 38.6751 7.752C39.9551 7.752 41.0911 8.04 42.0831 8.616C43.0911 9.192 43.8831 9.984 44.4591 10.992C45.0351 12 45.3311 13.152 45.3471 14.448C45.3471 15.728 45.0511 16.872 44.4591 17.88C43.8831 18.888 43.0911 19.68 42.0831 20.256C41.0911 20.832 39.9551 21.12 38.6751 21.12ZM38.6751 19.44C39.6031 19.44 40.4351 19.224 41.1711 18.792C41.9071 18.36 42.4831 17.768 42.8991 17.016C43.3151 16.264 43.5231 15.408 43.5231 14.448C43.5231 13.488 43.3151 12.632 42.8991 11.88C42.4831 11.112 41.9071 10.512 41.1711 10.08C40.4351 9.648 39.6031 9.432 38.6751 9.432C37.7471 9.432 36.9151 9.648 36.1791 10.08C35.4431 10.512 34.8591 11.112 34.4271 11.88C34.0111 12.632 33.8031 13.488 33.8031 14.448C33.8031 15.408 34.0111 16.264 34.4271 17.016C34.8591 17.768 35.4431 18.36 36.1791 18.792C36.9151 19.224 37.7471 19.44 38.6751 19.44ZM50.4533 16.608L49.3253 15.384L57.5333 7.968C57.7253 7.792 57.9253 7.712 58.1333 7.728C58.3413 7.728 58.5333 7.824 58.7093 8.016C58.8853 8.208 58.9653 8.416 58.9493 8.64C58.9493 8.848 58.8533 9.032 58.6613 9.192L50.4533 16.608ZM49.8533 21C49.5813 21 49.3573 20.92 49.1813 20.76C49.0213 20.584 48.9413 20.36 48.9413 20.088V3.168C48.9413 2.896 49.0213 2.68 49.1813 2.52C49.3573 2.344 49.5813 2.256 49.8533 2.256C50.1253 2.256 50.3413 2.344 50.5013 2.52C50.6773 2.68 50.7653 2.896 50.7653 3.168V20.088C50.7653 20.36 50.6773 20.584 50.5013 20.76C50.3413 20.92 50.1253 21 49.8533 21ZM58.7333 20.88C58.5253 21.056 58.3093 21.128 58.0853 21.096C57.8613 21.08 57.6693 20.968 57.5093 20.76L52.1573 14.184L53.4533 13.032L58.8533 19.68C59.0133 19.872 59.0853 20.08 59.0693 20.304C59.0533 20.512 58.9413 20.704 58.7333 20.88ZM66.6596 21.168C65.6196 21.168 64.7236 20.984 63.9716 20.616C63.2196 20.232 62.6356 19.704 62.2196 19.032C61.8036 18.36 61.5956 17.584 61.5956 16.704C61.5956 15.68 61.9156 14.736 62.5556 13.872C63.1956 12.992 64.1636 12.048 65.4596 11.04L67.4756 9.456C68.1636 8.912 68.6756 8.36 69.0116 7.8C69.3636 7.224 69.5396 6.632 69.5396 6.024C69.5396 5.368 69.3156 4.8 68.8676 4.32C68.4196 3.824 67.7876 3.576 66.9716 3.576C66.2516 3.576 65.6516 3.808 65.1716 4.272C64.7076 4.72 64.4756 5.248 64.4756 5.856C64.4756 6.352 64.5716 6.816 64.7636 7.248C64.9716 7.664 65.2836 8.08 65.6996 8.496L76.4756 19.248C76.6676 19.456 76.7796 19.648 76.8116 19.824C76.8436 20 76.7636 20.192 76.5716 20.4C76.1556 20.816 75.7476 20.816 75.3476 20.4L64.4516 9.504C63.9396 8.992 63.5316 8.432 63.2276 7.824C62.9396 7.2 62.7956 6.552 62.7956 5.88C62.7956 5.144 62.9796 4.488 63.3476 3.912C63.7156 3.336 64.2116 2.88 64.8356 2.544C65.4596 2.208 66.1716 2.04 66.9716 2.04C67.7876 2.04 68.5156 2.216 69.1556 2.568C69.7956 2.92 70.2996 3.4 70.6676 4.008C71.0356 4.6 71.2196 5.28 71.2196 6.048C71.2036 6.656 71.0756 7.224 70.8356 7.752C70.6116 8.264 70.2836 8.76 69.8516 9.24C69.4196 9.704 68.8996 10.176 68.2916 10.656L66.2996 12.192C65.6116 12.736 65.0516 13.264 64.6196 13.776C64.1876 14.272 63.8676 14.76 63.6596 15.24C63.4676 15.72 63.3716 16.208 63.3716 16.704C63.3716 17.568 63.6596 18.264 64.2356 18.792C64.8116 19.304 65.6356 19.56 66.7076 19.56C67.5236 19.56 68.2676 19.352 68.9396 18.936C69.6276 18.52 70.3316 17.928 71.0516 17.16L74.6996 13.296C74.8916 13.104 75.0756 12.992 75.2516 12.96C75.4276 12.912 75.6196 12.984 75.8276 13.176C76.0196 13.352 76.1236 13.544 76.1396 13.752C76.1556 13.96 76.0596 14.168 75.8516 14.376L72.2036 18.24C71.3716 19.152 70.5076 19.872 69.6116 20.4C68.7316 20.912 67.7476 21.168 66.6596 21.168ZM85.0851 21C84.2371 21 83.4771 20.8 82.8051 20.4C82.1491 20 81.6291 19.456 81.2451 18.768C80.8611 18.064 80.6691 17.264 80.6691 16.368V4.632C80.6691 4.36 80.7491 4.136 80.9091 3.96C81.0851 3.784 81.3091 3.696 81.5811 3.696C81.8531 3.696 82.0771 3.784 82.2531 3.96C82.4291 4.136 82.5171 4.36 82.5171 4.632V16.368C82.5171 17.184 82.7571 17.856 83.2371 18.384C83.7171 18.896 84.3331 19.152 85.0851 19.152H85.7331C85.9891 19.152 86.1971 19.24 86.3571 19.416C86.5171 19.592 86.5971 19.816 86.5971 20.088C86.5971 20.36 86.5011 20.584 86.3091 20.76C86.1171 20.92 85.8771 21 85.5891 21H85.0851ZM79.1091 9.96C78.8691 9.96 78.6691 9.888 78.5091 9.744C78.3491 9.584 78.2691 9.392 78.2691 9.168C78.2691 8.928 78.3491 8.736 78.5091 8.592C78.6691 8.432 78.8691 8.352 79.1091 8.352H85.2291C85.4691 8.352 85.6691 8.432 85.8291 8.592C85.9891 8.736 86.0691 8.928 86.0691 9.168C86.0691 9.392 85.9891 9.584 85.8291 9.744C85.6691 9.888 85.4691 9.96 85.2291 9.96H79.1091ZM90.3733 12.912C90.4213 11.92 90.6773 11.032 91.1413 10.248C91.6213 9.464 92.2373 8.848 92.9893 8.4C93.7573 7.952 94.6053 7.728 95.5333 7.728C96.2693 7.728 96.8373 7.832 97.2373 8.04C97.6373 8.248 97.7893 8.552 97.6933 8.952C97.6293 9.192 97.5173 9.352 97.3573 9.432C97.2133 9.512 97.0293 9.544 96.8053 9.528C96.5973 9.512 96.3573 9.496 96.0853 9.48C95.1893 9.4 94.3893 9.496 93.6853 9.768C92.9973 10.024 92.4453 10.424 92.0293 10.968C91.6293 11.512 91.4293 12.16 91.4293 12.912H90.3733ZM90.5173 21C90.2293 21 90.0053 20.92 89.8453 20.76C89.6853 20.6 89.6053 20.376 89.6053 20.088V8.784C89.6053 8.496 89.6853 8.272 89.8453 8.112C90.0053 7.952 90.2293 7.872 90.5173 7.872C90.8053 7.872 91.0293 7.952 91.1893 8.112C91.3493 8.272 91.4293 8.496 91.4293 8.784V20.088C91.4293 20.376 91.3493 20.6 91.1893 20.76C91.0293 20.92 90.8053 21 90.5173 21ZM105.421 21.12C104.189 21.12 103.085 20.832 102.109 20.256C101.133 19.664 100.357 18.864 99.7806 17.856C99.2206 16.848 98.9406 15.712 98.9406 14.448C98.9406 13.168 99.2286 12.024 99.8046 11.016C100.397 10.008 101.197 9.216 102.205 8.64C103.213 8.048 104.349 7.752 105.613 7.752C106.877 7.752 108.005 8.048 108.997 8.64C110.005 9.216 110.797 10.008 111.373 11.016C111.965 12.024 112.269 13.168 112.285 14.448L111.541 15.024C111.541 16.176 111.269 17.216 110.725 18.144C110.197 19.056 109.469 19.784 108.541 20.328C107.629 20.856 106.589 21.12 105.421 21.12ZM105.613 19.44C106.541 19.44 107.365 19.224 108.085 18.792C108.821 18.36 109.397 17.768 109.813 17.016C110.245 16.248 110.461 15.392 110.461 14.448C110.461 13.488 110.245 12.632 109.813 11.88C109.397 11.128 108.821 10.536 108.085 10.104C107.365 9.656 106.541 9.432 105.613 9.432C104.701 9.432 103.877 9.656 103.141 10.104C102.405 10.536 101.821 11.128 101.389 11.88C100.957 12.632 100.741 13.488 100.741 14.448C100.741 15.392 100.957 16.248 101.389 17.016C101.821 17.768 102.405 18.36 103.141 18.792C103.877 19.224 104.701 19.44 105.613 19.44ZM111.349 21C111.077 21 110.853 20.92 110.677 20.76C110.501 20.584 110.413 20.36 110.413 20.088V15.984L110.869 14.088L112.285 14.448V20.088C112.285 20.36 112.197 20.584 112.021 20.76C111.845 20.92 111.621 21 111.349 21ZM119.64 21C119.256 21 118.968 20.792 118.776 20.376L113.448 9.072C113.352 8.864 113.344 8.656 113.424 8.448C113.504 8.24 113.664 8.08 113.904 7.968C114.128 7.856 114.344 7.84 114.552 7.92C114.76 8 114.92 8.144 115.032 8.352L120.144 19.416H119.16L124.2 8.352C124.296 8.128 124.456 7.984 124.68 7.92C124.92 7.84 125.152 7.848 125.376 7.944C125.6 8.056 125.752 8.224 125.832 8.448C125.912 8.656 125.904 8.856 125.808 9.048L120.552 20.376C120.36 20.792 120.056 21 119.64 21ZM133.901 21.12C132.605 21.12 131.453 20.84 130.445 20.28C129.453 19.704 128.669 18.912 128.093 17.904C127.533 16.896 127.253 15.744 127.253 14.448C127.253 13.136 127.517 11.984 128.045 10.992C128.589 9.984 129.333 9.192 130.277 8.616C131.221 8.04 132.309 7.752 133.541 7.752C134.757 7.752 135.813 8.032 136.709 8.592C137.621 9.136 138.325 9.896 138.821 10.872C139.317 11.848 139.565 12.96 139.565 14.208C139.565 14.464 139.485 14.672 139.325 14.832C139.165 14.976 138.957 15.048 138.701 15.048H128.501V13.512H138.893L137.861 14.256C137.877 13.328 137.709 12.496 137.357 11.76C137.005 11.024 136.501 10.448 135.845 10.032C135.205 9.616 134.437 9.408 133.541 9.408C132.629 9.408 131.829 9.624 131.141 10.056C130.453 10.488 129.917 11.088 129.533 11.856C129.165 12.608 128.981 13.472 128.981 14.448C128.981 15.424 129.189 16.288 129.605 17.04C130.037 17.792 130.621 18.384 131.357 18.816C132.093 19.248 132.941 19.464 133.901 19.464C134.477 19.464 135.053 19.368 135.629 19.176C136.221 18.968 136.693 18.712 137.045 18.408C137.221 18.264 137.421 18.192 137.645 18.192C137.869 18.176 138.061 18.232 138.221 18.36C138.429 18.552 138.533 18.76 138.533 18.984C138.549 19.208 138.461 19.4 138.269 19.56C137.741 20.008 137.069 20.384 136.253 20.688C135.437 20.976 134.653 21.12 133.901 21.12ZM145.523 21C144.883 21 144.307 20.824 143.795 20.472C143.299 20.12 142.907 19.632 142.619 19.008C142.347 18.384 142.211 17.664 142.211 16.848V3.168C142.211 2.896 142.291 2.68 142.451 2.52C142.627 2.344 142.851 2.256 143.123 2.256C143.395 2.256 143.611 2.344 143.771 2.52C143.947 2.68 144.035 2.896 144.035 3.168V16.848C144.035 17.536 144.171 18.096 144.443 18.528C144.731 18.96 145.091 19.176 145.523 19.176H146.123C146.363 19.176 146.555 19.264 146.699 19.44C146.843 19.6 146.915 19.816 146.915 20.088C146.915 20.36 146.811 20.584 146.603 20.76C146.411 20.92 146.155 21 145.835 21H145.523Z" fill="#0B141D"/>
</svg>
